<?xml version="1.0" encoding="utf-8"?>
<!-- Generator: Adobe Illustrator 26.0.3, SVG Export Plug-In . SVG Version: 6.00 Build 0)  -->
<!DOCTYPE svg PUBLIC "-//W3C//DTD SVG 1.1//EN" "http://www.w3.org/Graphics/SVG/1.1/DTD/svg11.dtd" [
	<!ENTITY ns_extend "http://ns.adobe.com/Extensibility/1.0/">
	<!ENTITY ns_ai "http://ns.adobe.com/AdobeIllustrator/10.0/">
	<!ENTITY ns_graphs "http://ns.adobe.com/Graphs/1.0/">
	<!ENTITY ns_vars "http://ns.adobe.com/Variables/1.0/">
	<!ENTITY ns_imrep "http://ns.adobe.com/ImageReplacement/1.0/">
	<!ENTITY ns_sfw "http://ns.adobe.com/SaveForWeb/1.0/">
	<!ENTITY ns_custom "http://ns.adobe.com/GenericCustomNamespace/1.0/">
	<!ENTITY ns_adobe_xpath "http://ns.adobe.com/XPath/1.0/">
]>
<svg version="1.1" id="Ebene_1" xmlns:x="&ns_extend;" xmlns:i="&ns_ai;" xmlns:graph="&ns_graphs;"
	 xmlns="http://www.w3.org/2000/svg" xmlns:xlink="http://www.w3.org/1999/xlink" x="0px" y="0px" viewBox="0 0 395.4 75.9"
	 style="enable-background:new 0 0 395.4 75.9;" xml:space="preserve">
<style type="text/css">
	.st0{fill:#FFFFFF;}
</style>
<metadata>
	<sfw  xmlns="&ns_sfw;">
		<slices></slices>
		<sliceSourceBounds  bottomLeftOrigin="true" height="75.9" width="395.4" x="302.5" y="-288.1"></sliceSourceBounds>
	</sfw>
</metadata>
<g>
	<g>
		<path class="st0" d="M53.5,69.6c0.4,0.4,0.6,1.1,0.5,1.7c-0.1,0.6-0.5,1.2-1.1,1.4c-3.2,1.4-9.3,2.6-11.8,3l-0.6,0.1L1.1,35.4
			c-0.4-0.4-0.6-1-0.5-1.6c0.5-3.8,1.5-7.5,3.2-11c0.3-0.7,1-1.1,1.7-1.1c0.5,0,1,0.2,1.4,0.6L53.5,69.6z"/>
		<path class="st0" d="M70.3,54.2c0.6,0.6,0.7,1.5,0.3,2.3c-1.7,3.1-3.8,6-6.3,8.5c-0.4,0.4-0.8,0.6-1.4,0.6c-0.5,0-1-0.2-1.4-0.6
			L11.6,14.3c-0.4-0.4-0.6-0.9-0.6-1.4c0-0.5,0.2-1,0.6-1.4C14.2,9.1,17,7,20.2,5.4c0.3-0.1,0.6-0.2,0.9-0.2c0.5,0,1,0.2,1.4,0.6
			L70.3,54.2z"/>
		<path class="st0" d="M75.2,38.7c0,1.4-0.1,3-0.4,4.7l-0.3,2.2L31,1.6l2.2-0.3C34.8,1.1,36.4,1,38,1c2.3,0,4.6,0.2,6.9,0.6
			c5.2,1,10.2,3.1,14.5,6.2C69.5,15.1,75.3,26.4,75.2,38.7z"/>
		<polygon class="st0" points="0.2,47.4 28.4,75.9 0,75.7 		"/>
	</g>
	<path class="st0" d="M92.7,30.1V18.6V4.9h14.1v13.7h12.4v11.5h-12.4v26.8c0,3.7,1.5,5.3,5.9,5.3h6.5V74h-8.8
		c-10.6,0-17.7-4.5-17.7-17.2V30.1z"/>
	<path class="st0" d="M140.3,74h-14V18.6h14v8.6c3.5-5.7,9.3-9.4,17-9.4v14.7h-3.7c-8.3,0-13.3,3.2-13.3,13.9V74z"/>
	<path class="st0" d="M185.9,74.9c-16.1,0-27.8-11.2-27.8-28.6c0-17.5,11.4-28.6,27.8-28.6c16,0,27.3,10.9,27.3,27.4
		c0,1.8-0.1,3.6-0.4,5.4h-40.5c0.7,8.2,6.3,12.8,13.3,12.8c6,0,9.3-3,11.1-6.7h15.1C208.8,66.8,199.6,74.9,185.9,74.9z M172.4,41.1
		h26.3c-0.2-7.3-6-11.9-13.2-11.9C178.8,29.2,173.5,33.5,172.4,41.1z"/>
	<path class="st0" d="M256.2,43.4c0-8.9-4.9-13.7-12.3-13.7c-7.6,0-12.5,4.8-12.5,13.7V74h-14V18.6h14v6.9c3.6-4.7,9.6-7.7,16.7-7.7
		c12.9,0,22.1,8.4,22.1,23.7V74h-14V43.4z"/>
	<path class="st0" d="M300.3,17.7c7.3,0,14.3,3.4,18.1,8.6V0h14.2v74h-14.2v-8.2c-3.3,5.1-9.5,9.1-18.2,9.1
		c-14.1,0-25.3-11.5-25.3-28.8C274.9,28.8,286.1,17.7,300.3,17.7z M303.8,30c-7.5,0-14.6,5.6-14.6,16.1c0,10.5,7.1,16.5,14.6,16.5
		c7.7,0,14.7-5.8,14.7-16.3S311.5,30,303.8,30z"/>
	<path class="st0" d="M363,17.7c8.9,0,15,4.2,18.3,8.8v-7.9h14.1V74h-14.1v-8.1c-3.3,4.8-9.6,9-18.4,9c-14,0-25.2-11.5-25.2-28.8
		C337.7,28.8,348.9,17.7,363,17.7z M366.6,30c-7.5,0-14.6,5.6-14.6,16.1c0,10.5,7.1,16.5,14.6,16.5c7.7,0,14.7-5.8,14.7-16.3
		S374.3,30,366.6,30z"/>
</g>
<g>
</g>
<g>
</g>
<g>
</g>
<g>
</g>
<g>
</g>
<g>
</g>
</svg>
